<svg width="320" height="220" viewBox="0 0 320 220" fill="none" xmlns="http://www.w3.org/2000/svg">
  <g opacity="0.92" stroke="currentColor" stroke-width="1.8" stroke-linecap="round" stroke-linejoin="round">
    <path d="M56 56C56 45.5066 64.5066 37 75 37H245C255.493 37 264 45.5066 264 56V164C264 174.493 255.493 183 245 183H75C64.5066 183 56 174.493 56 164V56Z"/>
    <path d="M160 37V183" opacity="0.7"/>
    <path d="M79 68H141"/>
    <path d="M79 87H141" opacity="0.7"/>
    <path d="M79 106H141" opacity="0.7"/>
    <path d="M79 125H133" opacity="0.55"/>
    <path d="M179 68H233"/>
    <path d="M179 87H241" opacity="0.7"/>
    <path d="M179 106H241" opacity="0.7"/>
    <path d="M179 125H225" opacity="0.55"/>
    <path d="M72 156C94.6667 143.333 115.333 137 134 137C152.667 137 170.667 143.333 188 156" opacity="0.6"/>
    <path d="M187 155C201 145.667 215.333 141 230 141C244.667 141 257.333 144 268 150" opacity="0.38"/>
    <circle cx="228" cy="60" r="25" opacity="0.34"/>
    <circle cx="228" cy="60" r="16" opacity="0.58"/>
    <path d="M228 48V72" opacity="0.66"/>
    <path d="M216 60H240" opacity="0.66"/>
    <rect x="88" y="150" width="26" height="18" rx="4" opacity="0.42"/>
  </g>
</svg>
